<svg xmlns="http://www.w3.org/2000/svg" viewBox="0 0 123.99 36.31"><defs><style>.a,.b{fill:#f8aa09;}.b{stroke:#f8aa09;stroke-miterlimit:10;stroke-width:0.5px;}.c{fill:#333;}</style></defs><polygon class="a" points="123.99 36.31 0 36.31 0 2.34 48.31 2.34 48.31 4.34 2 4.34 2 34.31 121.99 34.31 121.99 4.34 75.67 4.34 75.67 2.34 123.99 2.34 123.99 36.31"/><path class="b" d="M59.17.31h1.64c0,.58,0,1.14,0,1.7s.17.6.72.57,1.16,0,1.74,0c.42,0,.59-.12.58-.45,0-.59,0-1.19,0-1.74L64,.33c1.57-.17,1.57-.17,1.57,1,0,1.63,0,3.26,0,4.89,0,.4-.15.56-.66.51h-.46c-.46,0-.61-.11-.6-.46,0-.66,0-1.32,0-2,0-.32-.1-.47-.55-.45-.65,0-1.31,0-2,0-.41,0-.54.11-.53.42,0,.69,0,1.38,0,2.07,0,.32-.14.41-.54.41-1.31,0-1.09.1-1.09-.86,0-1.7,0-3.39,0-5.08Z"/><path class="b" d="M70.39,6.77H68.2c-.35,0-.48-.09-.47-.36,0-1.15,0-2.31,0-3.46,0-.27.12-.38.47-.38h4.45c.36,0,.5.12.52.4.06.89,0,.9-1.09.9-.74,0-1.47,0-2.2,0-.36,0-.51.08-.52.38,0,1.22-.06,1.22,1.52,1.22.55,0,1.11,0,1.67,0s.62.1.62.46c0,.83,0,.83-1,.83Z"/><path class="b" d="M50.9.32h6a6.08,6.08,0,0,1,0,1c0,.1-.22.26-.36.27a8.15,8.15,0,0,1-1.21,0c-.44,0-.57.12-.57.44q0,2.09,0,4.17c0,.19-.1.53-.2.54a6.2,6.2,0,0,1-1.36,0c-.07,0-.13-.29-.13-.44,0-1.39,0-2.78,0-4.17,0-.39-.14-.57-.66-.51a1,1,0,0,1-.17,0C50.7,1.57,50.7,1.57,50.9.32Z"/><path class="b" d="M67.73.3c1.76,0,3.42,0,5.09,0,.11,0,.23.17.34.26s0,.06,0,.09c.07.91.07.91-1.1.91s-2.5,0-3.74,0c-.45,0-.64-.1-.59-.46A7.45,7.45,0,0,0,67.73.3Z"/><path class="c" d="M25.47,11.72c2.31,0,4.68,0,7.05,0a7.34,7.34,0,0,1,3,.43,3,3,0,0,1,.75,4.8,23.3,23.3,0,0,1-1.95,1.9c-.62.54-.6,1,0,1.53s1.2,1.15,1.8,1.73a3.25,3.25,0,0,1,.8,3.53A3.07,3.07,0,0,1,34,27.54c-2.59,0-5.19,0-7.79,0-.5,0-.94,0-.94-.71q0-7.41,0-14.81C25.32,12,25.38,11.9,25.47,11.72Zm8,3.55-.17-.41c-1.49,0-3,0-4.48,0-.17,0-.46.38-.47.59,0,2.75,0,5.49,0,8.24,0,.22.27.62.42.62,1.52.05,3.05,0,4.57,0l.09-.31a7.1,7.1,0,0,0-.65-.8c-1-1-2-2-3-2.83-.73-.6-.61-1,0-1.56.81-.73,1.58-1.5,2.36-2.26C32.61,16.17,33.05,15.72,33.5,15.27Z"/><path class="c" d="M76.17,27.51c-1.22,0-2.22.06-3.2,0-.29,0-.6-.48-.79-.8-.8-1.34-1.56-2.71-2.45-4.27l-5.28,5V11.72h2c2.24,0,4.48,0,6.71,0a2.78,2.78,0,0,1,2.73,1.77,3,3,0,0,1-.49,3.39c-.84.9-1.75,1.74-2.65,2.58a1,1,0,0,0-.23,1.5c1,1.68,2,3.41,2.91,5.13C75.67,26.48,75.86,26.89,76.17,27.51ZM72.62,15.24l-.19-.39c-1.49,0-3,0-4.48,0-.18,0-.5.35-.51.54,0,1.44,0,2.88,0,4.33l.31.15Z"/><path class="c" d="M104.36,11.73c3.14,0,6.21-.06,9.28,0a2.55,2.55,0,0,1,2.23,1.82,3,3,0,0,1-.54,3.29c-.82.87-1.69,1.7-2.58,2.5a1.13,1.13,0,0,0-.25,1.69c1,1.67,2,3.4,2.92,5.11.21.37.37.76.66,1.34-1.22,0-2.21.06-3.19,0-.3,0-.6-.48-.8-.81-.79-1.34-1.55-2.7-2.44-4.26l-5.29,5Zm8.18,3.51-.19-.39c-1.49,0-3,0-4.48,0a.75.75,0,0,0-.51.54c0,1.44,0,2.88,0,4.33l.3.15Z"/><path class="c" d="M49.74,11.74a2.69,2.69,0,0,1,.15.23c.34,2.86.34,2.86-2.49,2.86-1.3,0-2.6-.06-3.9,0a4.12,4.12,0,0,0-1.32.64c.26.39.44.91.8,1.14,1.88,1.16,3.84,2.18,5.7,3.36a4,4,0,0,1,.24,6.72,4.12,4.12,0,0,1-2.09.76c-2.41.1-4.84.05-7.26.07-.58,0-.85-.18-.84-.81,0-2.84-.26-2.3,2.17-2.34,1.59,0,3.18,0,4.76,0,.66,0,1.38-.09,1.39-.86a1.83,1.83,0,0,0-.82-1.32c-1.8-1.14-3.72-2.09-5.51-3.25-2.89-1.88-2.64-5.46.43-7a1.68,1.68,0,0,1,.71-.22C44.49,11.73,47.13,11.74,49.74,11.74Z"/><path class="c" d="M84.3,27.08,78,11.74c1.14,0,2.09-.06,3,0,.25,0,.52.46.65.76.79,1.85,1.53,3.71,2.3,5.57a7.77,7.77,0,0,0,.6,1c.82-2,1.58-3.78,2.33-5.58a6.73,6.73,0,0,0,.4-1c.15-.68.58-.83,1.19-.8s1.51,0,2.52,0L84.69,27.09Z"/><path class="c" d="M57.61,27.55c-1.37,0-2.75,0-4.12,0-.66,0-.89-.23-.88-.9q0-4.23,0-8.46c0-.66.23-.92.88-.92q4.18,0,8.35,0c.69,0,.95.29,1,1,.11,2.16.09,2.2-2,2.2-1.37,0-2.75,0-4.12,0-.67,0-1,.19-1,.94-.09,3-.12,3,2.85,3,1,0,2.1,0,3.14,0,.82,0,1.17.24,1.17,1.12,0,2,.05,2-2,2Z"/><path class="c" d="M92.1,22.49c0-1.43,0-2.86,0-4.29,0-.65.23-.92.88-.91q4.19,0,8.35,0c.68,0,1,.29,1,1,.1,2.17.08,2.21-2,2.21-1.38,0-2.75,0-4.12,0-.67,0-1,.17-1,.92-.09,3-.12,3,2.85,3,1.08,0,2.17,0,3.25,0,.72,0,1,.23,1.06,1,.07,2.16.1,2.16-2.07,2.16-2.38,0-4.77,0-7.16,0-.75,0-1-.23-1-1C92.14,25.2,92.1,23.85,92.1,22.49Z"/><path class="c" d="M52.62,11.72c3.29,0,6.42,0,9.54,0,.22,0,.44.41.64.63,0,0,0,.15,0,.22.12,2.23.12,2.23-2.08,2.23s-4.68,0-7,0c-.84,0-1.19-.23-1.1-1.12C52.67,13.12,52.62,12.5,52.62,11.72Z"/><path class="c" d="M92.1,11.72h8.31c1.84,0,2.4.77,1.83,2.57a1,1,0,0,1-.79.51c-2.84,0-5.69,0-8.53,0-.6,0-.85-.23-.83-.84S92.1,12.55,92.1,11.72Z"/><path class="c" d="M15.83,27.56H10.21c-1.37,0-2-.65-2-1.93,0-2.46,0-9.37,0-11.84a1.81,1.81,0,0,1,2.09-2c3.76,0,7.51,0,11.26,0a1.88,1.88,0,0,1,2.16,2c.05,2.47.06,9.38,0,11.84,0,1.29-.75,2-2.22,2C19.58,27.52,17.71,27.56,15.83,27.56Zm.34-11.23a6.26,6.26,0,0,0-4.92,2.48,1.29,1.29,0,0,0,0,1.19,6.13,6.13,0,0,0,9.92,0,1.21,1.21,0,0,0-.05-1.18A6.07,6.07,0,0,0,16.17,16.33Z"/><ellipse class="c" cx="16.17" cy="19.43" rx="1.68" ry="1.71"/></svg>