<svg xmlns="http://www.w3.org/2000/svg" viewBox="0 0 151.99 51.75"><defs><style>.a{fill:none;stroke-width:2px;}.a,.b{stroke:#f8aa09;stroke-miterlimit:10;}.b{fill:#f8aa09;stroke-width:0.5px;}.c{fill:#333;}</style></defs><polyline class="a" points="89.67 18.78 150.99 18.78 150.99 50.75 1 50.75 1 18.78 62.31 18.78"/><path class="b" d="M73.17,15.76h1.64c0,.57,0,1.13,0,1.69s.17.6.72.57,1.16,0,1.74,0c.42,0,.59-.12.58-.45,0-.59,0-1.19,0-1.74l.13-.06c1.57-.17,1.57-.17,1.57,1,0,1.63,0,3.26,0,4.89,0,.4-.15.57-.66.51a3.53,3.53,0,0,0-.46,0c-.46,0-.61-.11-.6-.46,0-.66,0-1.32,0-2,0-.32-.1-.47-.55-.45-.65,0-1.31,0-2,0-.41,0-.54.11-.53.42,0,.69,0,1.38,0,2.07,0,.32-.14.41-.54.41-1.31,0-1.09.1-1.09-.86,0-1.69,0-3.39,0-5.08Z"/><path class="b" d="M84.39,22.21c-.73,0-1.46,0-2.19,0-.35,0-.48-.1-.47-.37,0-1.15,0-2.31,0-3.46,0-.27.12-.38.47-.37h4.45c.36,0,.5.12.52.4.06.89,0,.9-1.09.9h-2.2c-.36,0-.51.08-.52.38,0,1.22-.06,1.22,1.52,1.22.55,0,1.11,0,1.67,0s.62.1.62.46c0,.83,0,.83-1,.83Z"/><path class="b" d="M64.9,15.77h5.95a6,6,0,0,1,0,.95c0,.11-.22.26-.36.28a9.77,9.77,0,0,1-1.21,0c-.44,0-.57.12-.57.44q0,2.09,0,4.17c0,.19-.1.53-.2.54a6.2,6.2,0,0,1-1.36,0c-.07,0-.12-.28-.13-.44,0-1.39,0-2.78,0-4.17,0-.39-.14-.57-.66-.51h-.17C64.7,17,64.7,17,64.9,15.77Z"/><path class="b" d="M81.73,15.74h5.09c.11,0,.23.17.34.26s0,.06,0,.09c.07.91.07.91-1.1.91s-2.5,0-3.74,0c-.45,0-.64-.1-.59-.46A7.45,7.45,0,0,0,81.73,15.74Z"/><path class="c" d="M29.42,27.16c2.94,0,6,0,9,0a11.74,11.74,0,0,1,3.85.43c2.37.91,2.74,3.26,1,4.81a27.44,27.44,0,0,1-2.48,1.89c-.79.55-.77,1,0,1.53S42.25,37,43,37.57a2.77,2.77,0,0,1,1,3.53C43.61,42.18,42,43,40.3,43c-3.31,0-6.62,0-9.93,0-.63,0-1.2,0-1.19-.71,0-4.94,0-9.87.05-14.81C29.23,27.41,29.3,27.35,29.42,27.16Zm10.23,3.55-.21-.41c-1.91,0-3.82,0-5.72,0a.87.87,0,0,0-.59.6q-.06,4.11,0,8.23c0,.22.34.62.53.62,1.94,0,3.89,0,5.83,0l.11-.31a8.86,8.86,0,0,0-.82-.8c-1.27-1-2.5-2-3.85-2.83-.93-.6-.77-1,0-1.56,1-.73,2-1.5,3-2.26C38.52,31.61,39.08,31.16,39.65,30.71Z"/><path class="c" d="M94,43c-1.55,0-2.82.06-4.07,0-.37,0-.76-.48-1-.8-1-1.34-2-2.71-3.12-4.27l-6.73,5V27.16h2.56c2.85,0,5.7,0,8.56,0a3.66,3.66,0,0,1,3.47,1.78,2.49,2.49,0,0,1-.62,3.38c-1.07.9-2.23,1.74-3.38,2.58-.64.46-.79.86-.29,1.51,1.29,1.68,2.49,3.41,3.71,5.12C93.37,41.92,93.61,42.33,94,43ZM89.49,30.68l-.24-.39c-1.9,0-3.8,0-5.7,0a.88.88,0,0,0-.66.54c0,1.44,0,2.89,0,4.33l.4.15Z"/><path class="c" d="M129.93,27.17c4,0,7.91-.06,11.82,0A3.16,3.16,0,0,1,144.59,29a2.53,2.53,0,0,1-.69,3.28c-1,.87-2.15,1.7-3.29,2.5-.74.52-.86,1-.31,1.69,1.3,1.67,2.49,3.4,3.72,5.12.26.36.47.75.84,1.33-1.55,0-2.82.06-4.07,0-.37,0-.76-.48-1-.81-1-1.34-2-2.7-3.11-4.26l-6.74,5Zm10.42,3.51-.24-.39c-1.9,0-3.81,0-5.71,0a.88.88,0,0,0-.65.54c-.06,1.44,0,2.89,0,4.33l.39.15Z"/><path class="c" d="M60.34,27.18c.14.18.18.2.19.24.43,2.85.43,2.85-3.17,2.85-1.66,0-3.32-.06-5,0a5.87,5.87,0,0,0-1.68.64c.33.39.56.92,1,1.14,2.39,1.16,4.89,2.18,7.26,3.36,3.18,1.59,3.33,5,.3,6.72a6.13,6.13,0,0,1-2.65.77c-3.08.1-6.17,0-9.25.06-.75,0-1.09-.18-1.08-.81,0-2.83-.33-2.3,2.76-2.34,2,0,4,0,6.08,0,.83,0,1.75-.09,1.77-.86a1.85,1.85,0,0,0-1.05-1.32c-2.3-1.14-4.74-2.09-7-3.25-3.69-1.88-3.37-5.45.55-7a2.58,2.58,0,0,1,.9-.22Z"/><path class="c" d="M104.37,42.52l-8-15.34c1.45,0,2.67-.05,3.87,0,.31,0,.66.46.82.76,1,1.85,2,3.71,2.93,5.57a8.72,8.72,0,0,0,.76,1c1.06-2,2-3.78,3-5.58a5.78,5.78,0,0,0,.52-1c.19-.68.73-.83,1.52-.8,1,0,1.91,0,3.2,0l-8,15.37Z"/><path class="c" d="M70.37,43c-1.75,0-3.5,0-5.25,0-.84,0-1.13-.23-1.13-.9,0-2.82,0-5.64,0-8.46,0-.65.3-.92,1.12-.91q5.32,0,10.64,0c.87,0,1.21.29,1.25,1,.13,2.16.11,2.2-2.62,2.2-1.75,0-3.5,0-5.25,0-.85,0-1.22.18-1.24.93-.12,3-.15,3,3.62,3,1.34,0,2.68,0,4,0,1,0,1.48.24,1.49,1.12,0,2,.06,2-2.51,2Z"/><path class="c" d="M114.31,37.93c0-1.43,0-2.86,0-4.28,0-.66.29-.93,1.12-.92,3.55,0,7.09,0,10.64,0,.87,0,1.21.29,1.25,1,.14,2.16.11,2.2-2.61,2.2-1.75,0-3.5,0-5.25,0-.85,0-1.22.18-1.25.92-.12,3-.15,3,3.62,3,1.38,0,2.77,0,4.15,0,.91,0,1.31.23,1.35,1,.09,2.15.12,2.15-2.64,2.15-3,0-6.08,0-9.12,0-1,0-1.3-.23-1.27-1C114.36,40.64,114.31,39.29,114.31,37.93Z"/><path class="c" d="M64,27.16c4.19,0,8.18,0,12.16,0,.28,0,.55.41.81.64,0,0,0,.14,0,.21.14,2.23.14,2.23-2.65,2.23-3,0-6,0-8.95,0-1.08,0-1.52-.23-1.41-1.11A16.44,16.44,0,0,0,64,27.16Z"/><path class="c" d="M114.31,27.16H124.9c2.34,0,3.06.77,2.33,2.57a1.36,1.36,0,0,1-1,.51c-3.63,0-7.25,0-10.88,0-.76,0-1.08-.23-1-.84S114.31,28,114.31,27.16Z"/><path class="c" d="M17.14,43H10c-1.73,0-2.59-.65-2.59-1.93,0-2.46,0-9.37,0-11.84,0-1.34.84-2,2.68-2,4.78,0,9.55,0,14.33,0,1.88,0,2.73.76,2.76,2,.06,2.46.07,9.37,0,11.83,0,1.29-1,2-2.83,2C21.92,43,19.53,43,17.14,43Zm.43-11.23a8.86,8.86,0,0,0-6.27,2.48,1.06,1.06,0,0,0-.05,1.19c3,3.37,9.7,3.37,12.64,0a1,1,0,0,0-.06-1.18A8.62,8.62,0,0,0,17.57,31.77Z"/><ellipse class="c" cx="17.57" cy="34.87" rx="2.14" ry="1.71"/></svg>